<svg fill="#000000" viewBox="0 0 24 24" id="recycle-bin-3" data-name="Flat Line" xmlns="http://www.w3.org/2000/svg" class="icon flat-line"><g id="SVGRepo_bgCarrier" stroke-width="0"></g><g id="SVGRepo_tracerCarrier" stroke-linecap="round" stroke-linejoin="round"></g><g id="SVGRepo_iconCarrier"><path id="secondary" d="M10,18.5A2.5,2.5,0,0,0,7.5,16a2.6,2.6,0,0,0-.74.12L6,7H18l-.93,13.07a1,1,0,0,1-1,.93H13l-1-2H10A2.73,2.73,0,0,0,10,18.5Z" style="fill: #2ca9bc; stroke-width: 2;"></path><path id="primary" d="M10,19h2l1,2h3.07a1,1,0,0,0,1-.93L18,7H6l.76,9.11" style="fill: none; stroke: #000000; stroke-linecap: round; stroke-linejoin: round; stroke-width: 2;"></path><path id="primary-2" data-name="primary" d="M7,7l.81-3.24a1,1,0,0,1,1-.76h6.44a1,1,0,0,1,1,.76L17,7ZM5,7H19M5,18.5A2.5,2.5,0,1,1,7.5,21,2.5,2.5,0,0,1,5,18.5Z" style="fill: none; stroke: #000000; stroke-linecap: round; stroke-linejoin: round; stroke-width: 2;"></path></g></svg>
